<svg xmlns="http://www.w3.org/2000/svg" version="1.1" xmlns:xlink="http://www.w3.org/1999/xlink" xmlns:svgjs="http://svgjs.dev/svgjs" width="1440" height="560" preserveAspectRatio="none" viewBox="0 0 1440 560"><g mask="url(&quot;#SvgjsMask1134&quot;)" fill="none"><rect width="1440" height="560" x="0" y="0" fill="rgba(149, 154, 233, 1)"></rect><path d="M0,573.874C106.846,557.914,202.716,514.744,297.532,462.969C399.296,407.399,528.648,368.778,572.303,261.362C615.887,154.12,532.474,40.392,515.827,-74.165C499.213,-188.492,539.202,-315.458,474.566,-411.213C408.147,-509.609,286.552,-554.79,171.54,-584.21C59.232,-612.938,-64.254,-625.341,-169.087,-575.859C-268.945,-528.725,-315.731,-418.325,-375.971,-325.781C-428.268,-245.439,-470.163,-163.432,-497.382,-71.513C-528.751,34.418,-569.647,141.511,-546.326,249.499C-520.266,370.17,-466.873,498.266,-360.721,561.293C-255.13,623.987,-121.454,592.016,0,573.874" fill="#5c64dd"></path><path d="M1440 931.2760000000001C1508.28 933.1 1549.282 856.384 1606.864 819.645 1664.698 782.746 1748.726 776.3720000000001 1779.156 714.887 1809.598 653.378 1772.911 581.268 1757.9940000000001 514.279 1744.21 452.376 1740.393 383.387 1695.3899999999999 338.703 1651.246 294.871 1580.915 300.62 1522.176 280.133 1459.477 258.265 1404.386 206.2 1338.469 214.21699999999998 1269.792 222.57 1213.054 271.821 1166.887 323.346 1120.199 375.452 1082.4769999999999 437.983 1075.59 507.606 1068.84 575.844 1091.283 644.856 1129.449 701.8240000000001 1164.464 754.088 1228.173 773.495 1278.77 810.879 1333.8319999999999 851.562 1371.563 929.447 1440 931.2760000000001" fill="#ced0f5"></path></g><defs><mask id="SvgjsMask1134"><rect width="1440" height="560" fill="#ffffff"></rect></mask></defs></svg>